<svg width="61" height="55" viewBox="0 0 61 55" fill="none" xmlns="http://www.w3.org/2000/svg">
<path d="M30.4167 40.15C35.7923 40.15 40.15 35.7923 40.15 30.4167C40.15 25.0411 35.7923 20.6833 30.4167 20.6833C25.0411 20.6833 20.6833 25.0411 20.6833 30.4167C20.6833 35.7923 25.0411 40.15 30.4167 40.15Z" fill="white"/>
<path d="M21.2917 0L15.7254 6.08333H6.08333C2.7375 6.08333 0 8.82083 0 12.1667V48.6667C0 52.0125 2.7375 54.75 6.08333 54.75H54.75C58.0958 54.75 60.8333 52.0125 60.8333 48.6667V12.1667C60.8333 8.82083 58.0958 6.08333 54.75 6.08333H45.1079L39.5417 0H21.2917ZM30.4167 45.625C22.0217 45.625 15.2083 38.8117 15.2083 30.4167C15.2083 22.0217 22.0217 15.2083 30.4167 15.2083C38.8117 15.2083 45.625 22.0217 45.625 30.4167C45.625 38.8117 38.8117 45.625 30.4167 45.625Z" fill="white"/>
</svg>
