<svg width="25" height="25" viewBox="0 0 25 25" fill="none" xmlns="http://www.w3.org/2000/svg">
<path d="M1.13259 1.13259C1.56231 0.703 2.14506 0.46167 2.75268 0.46167C3.3603 0.46167 3.94305 0.703 4.37277 1.13259L12.4755 9.23533L20.5782 1.13259C21.0104 0.715174 21.5893 0.484204 22.1901 0.489425C22.7909 0.494646 23.3656 0.735641 23.7905 1.1605C24.2154 1.58537 24.4564 2.1601 24.4616 2.76093C24.4668 3.36175 24.2358 3.94059 23.8184 4.37277L15.7157 12.4755L23.8184 20.5782C24.2358 21.0104 24.4668 21.5893 24.4616 22.1901C24.4564 22.7909 24.2154 23.3656 23.7905 23.7905C23.3656 24.2154 22.7909 24.4564 22.1901 24.4616C21.5893 24.4668 21.0104 24.2358 20.5782 23.8184L12.4755 15.7157L4.37277 23.8184C3.94059 24.2358 3.36175 24.4668 2.76093 24.4616C2.1601 24.4564 1.58537 24.2154 1.1605 23.7905C0.735641 23.3656 0.494646 22.7909 0.489425 22.1901C0.484204 21.5893 0.715174 21.0104 1.13259 20.5782L9.23533 12.4755L1.13259 4.37277C0.703 3.94305 0.46167 3.3603 0.46167 2.75268C0.46167 2.14506 0.703 1.56231 1.13259 1.13259V1.13259Z" fill="#610A0A"/>
</svg>
